PathFileType	4	(X/Y/Z)	C:/Users/opensim2020/Desktop/walking_exp_matlab/subject06_walking17_straight_02.trc																																																																																																																																					
DataRate	CameraRate	NumFrames	NumMarkers	Units	OrigDataRate	OrigDataStartFrame	OrigNumFrames																																																																																																																																	
100	100	4	45	mm	100	2157	334																																																																																																																																	
Frame#	Time	LFHD			RFHD			LBHD			RBHD			C7			T10			CLAV			STRN			RBAK			LSHO			LUPA			LELB			LFRM			LWRA			LWRB			LFIN			RSHO			RUPA			RELB			RFRM			RWRA			RWRB			RFIN			LASI			RASI			LPSI			RPSI			LTHI			LKNE			LTIB			LANK			LHEE			LTOE			RTHI			RKNE			RTIB			RANK			RHEE			RTOE			*39			*40			*41			*42			*43			*44		
		X1	Y1	Z1	X2	Y2	Z2	X3	Y3	Z3	X4	Y4	Z4	X5	Y5	Z5	X6	Y6	Z6	X7	Y7	Z7	X8	Y8	Z8	X9	Y9	Z9	X10	Y10	Z10	X11	Y11	Z11	X12	Y12	Z12	X13	Y13	Z13	X14	Y14	Z14	X15	Y15	Z15	X16	Y16	Z16	X17	Y17	Z17	X18	Y18	Z18	X19	Y19	Z19	X20	Y20	Z20	X21	Y21	Z21	X22	Y22	Z22	X23	Y23	Z23	X24	Y24	Z24	X25	Y25	Z25	X26	Y26	Z26	X27	Y27	Z27	X28	Y28	Z28	X29	Y29	Z29	X30	Y30	Z30	X31	Y31	Z31	X32	Y32	Z32	X33	Y33	Z33	X34	Y34	Z34	X35	Y35	Z35	X36	Y36	Z36	X37	Y37	Z37	X38	Y38	Z38	X39	Y39	Z39	X40	Y40	Z40	X41	Y41	Z41	X42	Y42	Z42	X43	Y43	Z43	X44	Y44	Z44	X45	Y45	Z45
																																																																																																																																								
1	0	-1235.70227	1672.94812	-1548.34656	-1244.4884	1660.90674	-1417.31445	-1367.58923	1616.34021	-1557.97339	-1374.75671	1609.81042	-1429.52795	-1370.45459	1460.30151	-1497.30945	-1411.18774	1133.27075	-1479.15564	-1261.78101	1382.27087	-1492.83826	-1226.16418	1205.42908	-1494.56763	-1445.49744	1293.95911	-1412.13635	-1310.93848	1411.05542	-1655.92102	-1293.78979	1210.23059	-1732.44751	-1280.46179	1099.26672	-1748.70544	-1226.36401	958.84387	-1767.52625	-1157.82117	853.75403	-1715.06812	-1205.32629	841.4762	-1766.66089	-1148.7002	770.78583	-1760.22363	-1303.86658	1419.19727	-1332.81396	-1344.79614	1222.75354	-1242.24878	-1339.53979	1101.05298	-1227.67102	-1325.30261	981.70355	-1208.0885	-1267.7323	841.04724	-1236.49695	-1321.59875	843.90894	-1195.67029	-1284.98853	767.23492	-1193.04761	-1233.57593	971.54706	-1583.21912	-1235.53748	979.0733	-1362.63	-1393.29419	999.9646	-1553.5199	-1386.85071	998.86279	-1385.16858	-1304.37061	659.61926	-1636.09155	-1310.21863	495.13974	-1614.86353	-1347.54004	240.52591	-1601.1698	-1346.3949	69.48549	-1551.55493	-1384.86975	55.14343	-1505.38525	-1199.49475	41.04228	-1548.94324	-1224.27502	646.35327	-1305.7915	-1186.4552	526.15857	-1329.31653	-1315.24512	299.38992	-1327.08801	-1404.25952	134.30313	-1363.51489	-1446.14111	122.0026	-1412.50928	-1279.83984	45.6231	-1349.91016	-1340.36829	1709.2605	-1495.72546	NaN	NaN	NaN	NaN	NaN	NaN	NaN	NaN	NaN	NaN	NaN	NaN	NaN	NaN	NaN
2	0.01	-1229.66687	1672.79395	-1549.19873	-1238.37146	1660.74939	-1418.09924	-1361.56506	1616.13367	-1558.81543	-1368.75281	1609.61462	-1430.32068	-1364.44714	1460.28247	-1498.22778	-1405.70337	1133.22046	-1480.17383	-1255.87317	1382.09717	-1493.81946	-1220.60315	1205.11499	-1495.67004	-1439.82227	1293.92603	-1413.2832	-1304.88025	1411.04504	-1656.8197	-1286.66711	1210.4187	-1733.49634	-1272.25574	1099.65332	-1749.97375	-1216.05688	959.98761	-1768.58484	-1145.51111	856.31763	-1716.13025	-1193.16992	842.93457	-1767.1958	-1135.08325	773.4101	-1761.10022	-1297.93835	1418.85083	-1333.67163	-1339.30566	1222.39197	-1243.23096	-1334.1687	1100.68335	-1228.75867	-1320.26953	981.25714	-1209.18262	-1262.97229	840.51233	-1237.56067	-1316.82336	843.54419	-1196.7937	-1280.2113	766.74109	-1194.22083	-1228.44946	971.18787	-1584.3009	-1230.18188	978.95258	-1363.64612	-1388.13818	999.68048	-1554.33789	-1381.46631	998.78619	-1386.0155	-1299.85181	659.25629	-1636.40686	-1306.40784	494.88336	-1615.00513	-1345.45886	240.36667	-1601.1626	-1346.0531	69.38571	-1551.04834	-1385.06433	55.74625	-1505.39331	-1199.2854	40.84579	-1548.72778	-1217.60254	646.9115	-1305.77014	-1179.13525	527.00671	-1329.48621	-1301.3999	296.15573	-1328.16663	-1384.17383	128.04898	-1365.39172	-1424.99866	114.40942	-1414.83411	-1257.22241	43.26125	-1349.82397	-1334.35669	1709.02002	-1496.53113	NaN	NaN	NaN	NaN	NaN	NaN	NaN	NaN	NaN	NaN	NaN	NaN	NaN	NaN	NaN
3	0.02	-1223.61853	1672.61084	-1549.94849	-1232.42004	1660.51111	-1418.84924	-1355.51929	1615.87048	-1559.56067	-1362.70886	1609.33679	-1431.08777	-1358.45398	1460.20215	-1499.13867	-1400.23987	1133.16138	-1481.19128	-1250.03027	1381.83862	-1494.71509	-1215.00684	1204.79907	-1496.77905	-1434.08081	1293.80859	-1414.3783	-1298.82153	1411.05286	-1657.66907	-1279.54639	1210.61658	-1734.49939	-1264.12744	1099.9469	-1751.14429	-1205.90002	961.11975	-1769.61353	-1133.15662	858.91718	-1716.96411	-1181.14209	844.40643	-1767.70007	-1121.65369	776.1001	-1761.75085	-1292.13794	1418.44751	-1334.54041	-1333.79724	1221.90234	-1244.31738	-1328.90125	1100.26868	-1229.84375	-1315.22205	980.82605	-1210.26367	-1258.18213	839.92639	-1238.52673	-1311.9939	842.95453	-1197.84094	-1275.90967	766.30066	-1195.09961	-1223.21753	970.82007	-1585.36816	-1224.56458	978.97656	-1364.55603	-1382.80261	999.33313	-1555.0448	-1376.1156	998.68634	-1386.79797	-1295.33398	658.90424	-1636.71851	-1302.52173	494.53687	-1615.17932	-1343.35071	240.32269	-1601.27051	-1345.72217	69.46849	-1550.88464	-1384.50769	55.50955	-1504.95483	-1199.15137	40.79281	-1548.61499	-1211.15051	647.41425	-1305.64783	-1172.00195	527.71918	-1329.51257	-1287.25012	292.79276	-1329.04602	-1363.87744	122.12234	-1367.20959	-1403.76086	107.30093	-1417.16016	-1234.25867	41.42279	-1350.21375	-1328.38464	1708.77783	-1497.28381	NaN	NaN	NaN	NaN	NaN	NaN	NaN	NaN	NaN	NaN	NaN	NaN	NaN	NaN	NaN
4	0.03	-1217.63025	1672.34973	-1550.45459	-1226.33667	1660.2301	-1419.52124	-1349.49414	1615.6156	-1560.17627	-1356.74292	1609.05859	-1431.78149	-1352.48633	1460.08142	-1499.91528	-1394.73926	1133.02087	-1482.05725	-1244.20313	1381.52856	-1495.50391	-1209.38062	1204.43591	-1497.82715	-1428.44739	1293.63867	-1415.52734	-1292.7887	1411.04333	-1658.48474	-1272.43115	1210.7915	-1735.43262	-1256.10974	1100.15747	-1752.24829	-1195.76233	962.07367	-1770.10742	-1121.50256	861.44824	-1717.7229	-1169.31128	845.87286	-1767.95886	-1108.30994	778.62634	-1762.01318	-1286.35205	1418.02136	-1335.27954	-1328.34009	1221.4165	-1245.34705	-1323.56836	1099.78784	-1230.953	-1310.19946	980.33496	-1211.33728	-1253.34302	839.26337	-1239.39673	-1307.33508	842.54883	-1198.83691	-1271.25806	765.79742	-1195.78149	-1217.93774	970.4248	-1586.37036	-1219.20618	978.77112	-1365.40015	-1377.47009	999.01385	-1555.82581	-1370.5686	998.55774	-1387.62476	-1290.73889	658.51953	-1636.99561	-1298.54358	494.20288	-1615.39478	-1341.24268	240.15752	-1601.3385	-1345.46082	69.42081	-1550.5813	-1384.36487	55.66952	-1504.77356	-1198.93286	40.77615	-1548.50806	-1204.77625	647.7926	-1305.47815	-1164.9259	528.37103	-1329.38806	-1273.19409	289.68842	-1329.68738	-1343.651	116.59518	-1368.99792	-1382.70996	100.5372	-1419.21399	-1211.04517	40.56742	-1350.83167	-1322.36194	1708.50964	-1497.92566	NaN	NaN	NaN	NaN	NaN	NaN	NaN	NaN	NaN	NaN	NaN	NaN	NaN	NaN	NaN
